# xmcd
#
# Track frame offsets:
#	150
#	12885
#	26345
#	41437
#	56472
#	73092
#	85070
#	101707
#	116352
#	134422
#	149445
#	162042
#	172162
#	186275
#	199155
#	214165
#	227425
#	240527
#	254320
#
# Disc length: 3607 seconds
#
# Revision: 1
# Processed by: cddbd v1.5.1PL0 Copyright (c) Steve Scherf et al.
# Submitted via: audiograbber 1.83.01
#
DISCID=040e1513
DTITLE=MERLE HAGGARD - KARAOKE
DYEAR=1900
DGENRE=
TTITLE0=MY FRIENDS ARE GONNA BE STRANGERS
TTITLE1=BIG CITY
TTITLE2=SILVER WINGS
TTITLE3=BRANDED MAN
TTITLE4=DADDY FRANK
TTITLE5=EVERY FOOL HAS A RAINBOW
TTITLE6=MAMA'S HUNGRY EYES
TTITLE7=I THREW AWAY THE ROSE
TTITLE8=I'LL JUST STAY HERE AND DRINK
TTITLE9=I'M A LONESOME FUGITIVE
TTITLE10=LET'S CHASE EACH OTHER 'ROUND THE ROOM TONIGHT
TTITLE11=MAMA TRIED
TTITLE12=RAMBLIN FEVER
TTITLE13=SING ME BACK HOME
TTITLE14=SOMEDAY WHEN THINGS ARE GOOD
TTITLE15=SWINGIN' DOORS
TTITLE16=BOTTLE LET ME DOWN
TTITLE17=THE FARMERS DAUGHTER
TTITLE18=TWINKLE TWINKLE LUCKY STAR
EXTD=
EXTT0=
EXTT1=
EXTT2=
EXTT3=
EXTT4=
EXTT5=
EXTT6=
EXTT7=
EXTT8=
EXTT9=
EXTT10=
EXTT11=
EXTT12=
EXTT13=
EXTT14=
EXTT15=
EXTT16=
EXTT17=
EXTT18=
PLAYORDER=
